simulation
nRows=49
nColumns=15
endheader
time  TH_x TH_y TH_z SC_y  SC_z  SC_x  AC_y  AC_z  AC_x  GH_y  GH_z  GH_x  EL_x  PS_y
0.500034  0.000000  0.000000  0.000000  -24.207333  -1.581280  2.297409  59.173778  28.322205  -1.283847  -27.654108  41.166101  40.447555  19.126621  117.441429
0.500101  0.000000  0.000000  0.000000  -24.207333  -1.581280  4.928988  59.859618  26.054222  -2.784533  -27.654108  41.166101  40.447555  19.126621  117.441429
0.500169  0.000000  0.000000  0.000000  -24.207333  -1.581280  7.560567  60.467828  23.771326  -4.228043  -27.654108  41.166101  40.447555  19.126621  117.441429
0.500237  0.000000  0.000000  0.000000  -24.207333  -1.581280  10.192146  61.004026  21.475478  -5.621603  -27.654108  41.166101  40.447555  19.126621  117.441429
0.500304  0.000000  0.000000  0.000000  -24.207333  -1.581280  12.823725  61.473061  19.168442  -6.971791  -27.654108  41.166101  40.447555  19.126621  117.441429
0.500372  0.000000  0.000000  0.000000  -24.207333  -1.581280  15.455304  61.879055  16.851812  -8.284596  -27.654108  41.166101  40.447555  19.126621  117.441429
0.500439  0.000000  0.000000  0.000000  -24.207333  -1.581280  18.086883  62.225546  14.527040  -9.565570  -27.654108  41.166101  40.447555  19.126621  117.441429
0.500507  0.000000  0.000000  0.000000  -24.207333  -1.581280  20.718462  62.515467  12.195457  -10.819840  -27.654108  41.166101  40.447555  19.126621  117.441429
0.500574  0.000000  0.000000  0.000000  -24.207333  -1.581280  23.350041  62.751243  9.858307  -12.052208  -27.654108  41.166101  40.447555  19.126621  117.441429
0.500642  0.000000  0.000000  0.000000  -24.207333  -1.581280  25.981620  62.934801  7.516744  -13.267189  -27.654108  41.166101  40.447555  19.126621  117.441429
0.500710  0.000000  0.000000  0.000000  -24.207333  -1.581280  28.613199  63.067650  5.171877  -14.469127  -27.654108  41.166101  40.447555  19.126621  117.441429
0.500777  0.000000  0.000000  0.000000  -24.207333  -1.581280  31.244778  63.150857  2.824772  -15.662180  -27.654108  41.166101  40.447555  19.126621  117.441429
0.500845  0.000000  0.000000  0.000000  -24.207333  -1.581280  33.876357  63.185095  0.476435  -16.850430  -27.654108  41.166101  40.447555  19.126621  117.441429
0.500912  0.000000  0.000000  0.000000  -24.207333  -1.581280  36.507936  63.170635  -1.872105  -18.037860  -27.654108  41.166101  40.447555  19.126621  117.441429
0.500980  0.000000  0.000000  0.000000  -24.207333  -1.581280  39.139515  63.107347  -4.219831  -19.228481  -27.654108  41.166101  40.447555  19.126621  117.441429
0.501047  0.000000  0.000000  0.000000  -24.207333  -1.581280  41.771094  62.994744  -6.565737  -20.426324  -27.654108  41.166101  40.447555  19.126621  117.441429
0.501115  0.000000  0.000000  0.000000  -24.207333  -1.581280  44.402673  62.831906  -8.908760  -21.635517  -27.654108  41.166101  40.447555  19.126621  117.441429
0.501183  0.000000  0.000000  0.000000  -24.207333  -1.581280  47.034252  62.617531  -11.247844  -22.860284  -27.654108  41.166101  40.447555  19.126621  117.441429
0.501250  0.000000  0.000000  0.000000  -24.207333  -1.581280  49.665831  62.349843  -13.581830  -24.105101  -27.654108  41.166101  40.447555  19.126621  117.441429
0.501318  0.000000  0.000000  0.000000  -24.207333  -1.581280  52.297409  62.026627  -15.909521  -25.374642  -27.654108  41.166101  40.447555  19.126621  117.441429
0.501385  0.000000  0.000000  0.000000  -16.590924  6.393310  3.756965  61.100094  32.096756  14.670860  -1.244508  48.769880  19.464454  14.857411  125.957056
0.501453  0.000000  0.000000  0.000000  -16.590924  6.393310  6.388544  61.853508  29.784439  13.205855  -1.244508  48.769880  19.464454  14.857411  125.957056
0.501520  0.000000  0.000000  0.000000  -16.590924  6.393310  9.020123  62.523613  27.456706  11.807243  -1.244508  48.769880  19.464454  14.857411  125.957056
0.501588  0.000000  0.000000  0.000000  -16.590924  6.393310  11.651702  63.117451  25.115588  10.466644  -1.244508  48.769880  19.464454  14.857411  125.957056
0.501656  0.000000  0.000000  0.000000  -16.590924  6.393310  14.283281  63.641052  22.762870  9.176577  -1.244508  48.769880  19.464454  14.857411  125.957056
0.501723  0.000000  0.000000  0.000000  -16.590924  6.393310  16.914860  64.099561  20.400141  7.930332  -1.244508  48.769880  19.464454  14.857411  125.957056
0.501791  0.000000  0.000000  0.000000  -16.590924  6.393310  19.546439  64.497388  18.028823  6.721818  -1.244508  48.769880  19.464454  14.857411  125.957056
0.501858  0.000000  0.000000  0.000000  -16.590924  6.393310  22.178018  64.838246  15.650205  5.545495  -1.244508  48.769880  19.464454  14.857411  125.957056
0.501926  0.000000  0.000000  0.000000  -16.590924  6.393310  24.809597  65.125241  13.265455  4.396265  -1.244508  48.769880  19.464454  14.857411  125.957056
0.501993  0.000000  0.000000  0.000000  -16.590924  6.393310  27.441176  65.360950  10.875660  3.269397  -1.244508  48.769880  19.464454  14.857411  125.957056
0.502061  0.000000  0.000000  0.000000  -16.590924  6.393310  30.072754  65.547431  8.481825  2.160479  -1.244508  48.769880  19.464454  14.857411  125.957056
0.502129  0.000000  0.000000  0.000000  -16.590924  6.393310  32.704333  65.686301  6.084893  1.065320  -1.244508  48.769880  19.464454  14.857411  125.957056
0.502196  0.000000  0.000000  0.000000  -16.590924  6.393310  35.335912  65.778758  3.685775  -0.020111  -1.244508  48.769880  19.464454  14.857411  125.957056
0.502264  0.000000  0.000000  0.000000  -16.590924  6.393310  37.967491  65.825586  1.285348  -1.099703  -1.244508  48.769880  19.464454  14.857411  125.957056
0.502331  0.000000  0.000000  0.000000  -16.590924  6.393310  40.599070  65.827190  -1.115535  -2.177267  -1.244508  48.769880  19.464454  14.857411  125.957056
0.502399  0.000000  0.000000  0.000000  -16.590924  6.393310  43.230649  65.783566  -3.516024  -3.256589  -1.244508  48.769880  19.464454  14.857411  125.957056
0.502466  0.000000  0.000000  0.000000  -16.590924  6.393310  45.862228  65.694354  -5.915260  -4.341483  -1.244508  48.769880  19.464454  14.857411  125.957056
0.502534  0.000000  0.000000  0.000000  -16.590924  6.393310  48.493807  65.558794  -8.312370  -5.435841  -1.244508  48.769880  19.464454  14.857411  125.957056
0.502602  0.000000  0.000000  0.000000  -16.590924  6.393310  51.125386  65.375731  -10.706462  -6.543644  -1.244508  48.769880  19.464454  14.857411  125.957056
0.502669  0.000000  0.000000  0.000000  -16.590924  6.393310  53.756965  65.143572  -13.096576  -7.669091  -1.244508  48.769880  19.464454  14.857411  125.957056
0.502737  0.000000  0.000000  0.000000  -3.274047  7.458703  3.756965  39.341444  10.882949  -7.385658  -19.249394  40.345873  29.190122  19.959349  129.245850
0.502804  0.000000  0.000000  0.000000  -3.274047  7.458703  6.388544  39.701109  9.208121  -9.447162  -19.249394  40.345873  29.190122  19.959349  129.245850
0.502872  0.000000  0.000000  0.000000  -3.274047  7.458703  9.020123  39.998244  7.521684  -11.489149  -19.249394  40.345873  29.190122  19.959349  129.245850
0.502939  0.000000  0.000000  0.000000  -3.274047  7.458703  11.651702  40.233756  5.825886  -13.515287  -19.249394  40.345873  29.190122  19.959349  129.245850
0.503007  0.000000  0.000000  0.000000  -3.274047  7.458703  14.283281  40.408407  4.122901  -15.529191  -19.249394  40.345873  29.190122  19.959349  129.245850
0.503075  0.000000  0.000000  0.000000  -3.274047  7.458703  16.914860  40.522786  2.414849  -17.534477  -19.249394  40.345873  29.190122  19.959349  129.245850
0.503142  0.000000  0.000000  0.000000  -3.274047  7.458703  19.546439  40.577231  0.703855  -19.534720  -19.249394  40.345873  29.190122  19.959349  129.245850
0.503210  0.000000  0.000000  0.000000  -3.274047  7.458703  22.178018  40.571927  -1.007996  -21.533493  -19.249394  40.345873  29.190122  19.959349  129.245850
0.503277  0.000000  0.000000  0.000000  -3.274047  7.458703  24.809597  40.506852  -2.718619  -23.534371  -19.249394  40.345873  29.190122  19.959349  129.245850
